{
  "accessors": [
    {
      "bufferView": 1,
      "componentType": 5126,
      "count": 1154,
      "max": [
        2.8903298377990723,
        4.2047629356384277,
        1.1616483926773071
      ],
      "min": [
        -1.4682298898696899,
        -0.34334966540336609,
        -4.8161659240722656
      ],
      "type": "VEC3"
    },
    {
      "bufferView": 1,
      "byteOffset": 13848,
      "componentType": 5126,
      "count": 1154,
      "max": [
        0.99891585111618042,
        0.99983870983123779,
        0.99753028154373169
      ],
      "min": [
        -0.99906086921691895,
        -0.99939930438995361,
        -0.99920547008514404
      ],
      "type": "VEC3"
    },
    {
      "bufferView": 0,
      "componentType": 5125,
      "count": 6912,
      "max": [
        1153
      ],
      "min": [
        0
      ],
      "type": "SCALAR"
    },
    {
      "bufferView": 1,
      "byteOffset": 27696,
      "componentType": 5126,
      "count": 1154,
      "max": [
        1.8929945230484009,
        4.0756797790527344,
        0.9828721284866333
      ],
      "min": [
        -1.8025703430175781,
        -0.38985496759414673,
        -5.7219657897949219
      ],
      "type": "VEC3"
    },
    {
      "bufferView": 1,
      "byteOffset": 41544,
      "componentType": 5126,
      "count": 1154,
      "max": [
        0.99919939041137695,
        0.99982380867004395,
        0.99892455339431763
      ],
      "min": [
        -0.99957501888275146,
        -0.99911797046661377,
        -0.99823290109634399
      ],
      "type": "VEC3"
    },
    {
      "bufferView": 0,
      "byteOffset": 27648,
      "componentType": 5125,
      "count": 6912,
      "max": [
        1153
      ],
      "min": [
        0
      ],
      "type": "SCALAR"
    },
    {
      "bufferView": 1,
      "byteOffset": 55392,
      "componentType": 5126,
      "count": 1154,
      "max": [
        2.7227277755737305,
        4.3797440528869629,
        1.2010033130645752
      ],
      "min": [
        -1.6496847867965698,
        -0.36623522639274597,
        -5.235382080078125
      ],
      "type": "VEC3"
    },
    {
      "bufferView": 1,
      "byteOffset": 69240,
      "componentType": 5126,
      "count": 1154,
      "max": [
        0.99407011270523071,
        0.99961912631988525,
        0.99784654378890991
      ],
      "min": [
        -0.99814134836196899,
        -0.99924349784851074,
        -0.99883592128753662
      ],
      "type": "VEC3"
    },
    {
      "bufferView": 0,
      "byteOffset": 55296,
      "componentType": 5125,
      "count": 6912,
      "max": [
        1153
      ],
      "min": [
        0
      ],
      "type": "SCALAR"
    }
  ],
  "asset": {
    "extras": {
      "author": "ragad.sallabi (https://sketchfab.com/ragad.sallabi)",
      "license": "CC-BY-4.0 (http://creativecommons.org/licenses/by/4.0/)",
      "source": "https://sketchfab.com/3d-models/stylize-clouds-32ed464f19fe4acf86723eaff08dd568",
      "title": "stylize clouds"
    },
    "generator": "Sketchfab-9.17.1",
    "version": "2.0"
  },
  "bufferViews": [
    {
      "buffer": 0,
      "byteLength": 82944,
      "byteOffset": 0,
      "name": "floatBufferViews",
      "target": 34963
    },
    {
      "buffer": 0,
      "byteLength": 83088,
      "byteOffset": 82944,
      "byteStride": 12,
      "name": "floatBufferViews",
      "target": 34962
    }
  ],
  "buffers": [
    {
      "byteLength": 166032,
      "uri": "scene.bin"
    }
  ],
  "materials": [
    {
      "doubleSided": true,
      "emissiveFactor": [
        0,
        0,
        0
      ],
      "name": "normal",
      "pbrMetallicRoughness": {
        "baseColorFactor": [
          1,
          1,
          1,
          1
        ],
        "metallicFactor": 1,
        "roughnessFactor": 1
      }
    }
  ],
  "meshes": [
    {
      "primitives": [
        {
          "attributes": {
            "NORMAL": 1,
            "POSITION": 0
          },
          "indices": 2,
          "material": 0,
          "mode": 4
        }
      ]
    },
    {
      "primitives": [
        {
          "attributes": {
            "NORMAL": 4,
            "POSITION": 3
          },
          "indices": 5,
          "material": 0,
          "mode": 4
        }
      ]
    },
    {
      "primitives": [
        {
          "attributes": {
            "NORMAL": 7,
            "POSITION": 6
          },
          "indices": 8,
          "material": 0,
          "mode": 4
        }
      ]
    }
  ],
  "nodes": [
    {
      "children": [
        1
      ],
      "name": "RootNode (gltf orientation matrix)",
      "rotation": [
        -0.70710678118654746,
        -0,
        -0,
        0.70710678118654757
      ]
    },
    {
      "children": [
        2
      ],
      "name": "RootNode (model correction matrix)"
    },
    {
      "children": [
        3
      ],
      "name": "root"
    },
    {
      "children": [
        4,
        6,
        8
      ],
      "matrix": [
        1,
        0,
        0,
        0,
        0,
        2.2204460492503131e-16,
        1,
        0,
        0,
        -1,
        2.2204460492503131e-16,
        0,
        0,
        0,
        0,
        1
      ],
      "name": "GLTF_SceneRootNode"
    },
    {
      "children": [
        5
      ],
      "matrix": [
        1,
        0,
        0,
        0,
        0,
        1,
        0,
        0,
        0,
        0,
        1,
        0,
        0.33964851498603821,
        0.13626354932785034,
        -3.5259478092193604,
        1
      ],
      "name": "Cube_4"
    },
    {
      "mesh": 0,
      "name": ""
    },
    {
      "children": [
        7
      ],
      "matrix": [
        1,
        0,
        0,
        0,
        0,
        1,
        0,
        0,
        0,
        0,
        1,
        0,
        1.677868127822876,
        2.580679178237915,
        -11.413639068603516,
        1
      ],
      "name": "Cube.001_5"
    },
    {
      "mesh": 1,
      "name": ""
    },
    {
      "children": [
        9
      ],
      "matrix": [
        1,
        0,
        0,
        0,
        0,
        1,
        0,
        0,
        0,
        0,
        1,
        0,
        0.69726693630218506,
        -6.6400384902954102,
        -8.8018083572387695,
        1
      ],
      "name": "Cube.002_6"
    },
    {
      "mesh": 2,
      "name": ""
    }
  ],
  "scene": 0,
  "scenes": [
    {
      "name": "OSG_Scene",
      "nodes": [
        0
      ]
    }
  ]
}

